<?xml version="1.0" encoding="UTF-8" standalone="no"?>
<!DOCTYPE svg PUBLIC "-//W3C//DTD SVG 1.1//EN"
 "http://www.w3.org/Graphics/SVG/1.1/DTD/svg11.dtd">
<!-- Generated by graphviz version 2.47.3 (20210619.1520)
 -->
<!-- Title: dependencies Pages: 1 -->
<svg width="554pt" height="174pt"
 viewBox="0.00 0.00 554.00 173.80" xmlns="http://www.w3.org/2000/svg" xmlns:xlink="http://www.w3.org/1999/xlink">
<g id="graph0" class="graph" transform="scale(1 1) rotate(0) translate(4 169.8)">
<title>dependencies</title>
<polygon fill="white" stroke="transparent" points="-4,4 -4,-169.8 550,-169.8 550,4 -4,4"/>
<text text-anchor="middle" x="273" y="-8.2" font-family="sans-serif" font-size="14.00">dependencies</text>
<g id="clust1" class="cluster">
<title>cluster_AppModule</title>
<polygon fill="none" stroke="black" stroke-dasharray="1,5" points="8,-32.8 8,-157.8 538,-157.8 538,-32.8 8,-32.8"/>
</g>
<g id="clust3" class="cluster">
<title>cluster_AppModule_imports</title>
<polygon fill="none" stroke="black" points="16,-40.8 16,-92.8 530,-92.8 530,-40.8 16,-40.8"/>
</g>
<!-- AccountModule -->
<g id="node1" class="node">
<title>AccountModule</title>
<polygon fill="#8dd3c7" stroke="black" points="522.48,-84.8 519.48,-88.8 498.48,-88.8 495.48,-84.8 415.52,-84.8 415.52,-48.8 522.48,-48.8 522.48,-84.8"/>
<text text-anchor="middle" x="469" y="-62.6" font-family="Times,serif" font-size="14.00">AccountModule</text>
</g>
<!-- AppModule -->
<g id="node5" class="node">
<title>AppModule</title>
<polygon fill="#8dd3c7" stroke="black" points="320.66,-149.8 317.66,-153.8 296.66,-153.8 293.66,-149.8 237.34,-149.8 237.34,-113.8 320.66,-113.8 320.66,-149.8"/>
<text text-anchor="middle" x="279" y="-127.6" font-family="Times,serif" font-size="14.00">AppModule</text>
</g>
<!-- AccountModule&#45;&gt;AppModule -->
<g id="edge1" class="edge">
<title>AccountModule&#45;&gt;AppModule</title>
<path fill="none" stroke="black" d="M469,-84.91C469,-104.14 469,-131.8 469,-131.8 469,-131.8 330.7,-131.8 330.7,-131.8"/>
<polygon fill="black" stroke="black" points="330.7,-128.3 320.7,-131.8 330.7,-135.3 330.7,-128.3"/>
</g>
<!-- CompanyModule -->
<g id="node2" class="node">
<title>CompanyModule</title>
<polygon fill="#8dd3c7" stroke="black" points="397.99,-84.8 394.99,-88.8 373.99,-88.8 370.99,-84.8 284.01,-84.8 284.01,-48.8 397.99,-48.8 397.99,-84.8"/>
<text text-anchor="middle" x="341" y="-62.6" font-family="Times,serif" font-size="14.00">CompanyModule</text>
</g>
<!-- CompanyModule&#45;&gt;AppModule -->
<g id="edge2" class="edge">
<title>CompanyModule&#45;&gt;AppModule</title>
<path fill="none" stroke="black" d="M302.42,-84.91C302.42,-84.91 302.42,-103.79 302.42,-103.79"/>
<polygon fill="black" stroke="black" points="298.92,-103.79 302.42,-113.79 305.92,-103.79 298.92,-103.79"/>
</g>
<!-- PersonModule -->
<g id="node3" class="node">
<title>PersonModule</title>
<polygon fill="#8dd3c7" stroke="black" points="265.65,-84.8 262.65,-88.8 241.65,-88.8 238.65,-84.8 168.35,-84.8 168.35,-48.8 265.65,-48.8 265.65,-84.8"/>
<text text-anchor="middle" x="217" y="-62.6" font-family="Times,serif" font-size="14.00">PersonModule</text>
</g>
<!-- PersonModule&#45;&gt;AppModule -->
<g id="edge3" class="edge">
<title>PersonModule&#45;&gt;AppModule</title>
<path fill="none" stroke="black" d="M251.5,-84.91C251.5,-84.91 251.5,-103.79 251.5,-103.79"/>
<polygon fill="black" stroke="black" points="248,-103.79 251.5,-113.79 255,-103.79 248,-103.79"/>
</g>
<!-- TransactionModule -->
<g id="node4" class="node">
<title>TransactionModule</title>
<polygon fill="#8dd3c7" stroke="black" points="149.63,-84.8 146.63,-88.8 125.63,-88.8 122.63,-84.8 24.37,-84.8 24.37,-48.8 149.63,-48.8 149.63,-84.8"/>
<text text-anchor="middle" x="87" y="-62.6" font-family="Times,serif" font-size="14.00">TransactionModule</text>
</g>
<!-- TransactionModule&#45;&gt;AppModule -->
<g id="edge4" class="edge">
<title>TransactionModule&#45;&gt;AppModule</title>
<path fill="none" stroke="black" d="M87,-84.91C87,-104.14 87,-131.8 87,-131.8 87,-131.8 227.34,-131.8 227.34,-131.8"/>
<polygon fill="black" stroke="black" points="227.34,-135.3 237.34,-131.8 227.34,-128.3 227.34,-135.3"/>
</g>
</g>
</svg>
